# xmcd
#
# Track frame offsets: 
#        150
#        16526
#        30909
#        47370
#        64705
#        85763
#        103126
#        121620
#        145743
#        165462
#        182420
#        201879
#        225557
#        239540
#        253663
#        268055
#        295343
#        309583
#
# Disc length: 4369 seconds
#
# Revision: 0
# Processed by: cddbd v1.5.2PL0 Copyright (c) Steve Scherf et al.
# Submitted via: ExactAudioCopy v1.0b3
#
DISCID=e3110f12
DTITLE=Network - Network and Nightwork
DYEAR=2008
DGENRE=Rock
TTITLE0=You Lied
TTITLE1=So Far Gone
TTITLE2=Save Me, Save Me
TTITLE3=Holly
TTITLE4=Without You
TTITLE5=Go Find Another Lover
TTITLE6=Don't Leave Me Alone Tonight
TTITLE7=Fly Away
TTITLE8=Backseat Driver
TTITLE9=We're Only Into Rock and Roll
TTITLE10=Halfway To Paradise
TTITLE11=I Already Played It
TTITLE12=Beautiful Lady
TTITLE13=Star Gazer
TTITLE14=Don't Do Nothing Crazy
TTITLE15=Sundown
TTITLE16=So So Good
TTITLE17=Better Man Than Me
EXTD=
EXTT0=
EXTT1=
EXTT2=
EXTT3=
EXTT4=
EXTT5=
EXTT6=
EXTT7=
EXTT8=
EXTT9=
EXTT10=
EXTT11=
EXTT12=
EXTT13=
EXTT14=
EXTT15=
EXTT16=
EXTT17=
PLAYORDER=
